HIERARCHY
ROOT Hips
{
	OFFSET 12.274321 99.969612 -113.809723
	CHANNELS 6 Xposition Yposition Zposition Xrotation Yrotation Zrotation
	JOINT LeftUpLeg
	{
		OFFSET 8.910002 -6.269997 0.000000
		CHANNELS 6 Xposition Yposition Zposition Xrotation Yrotation Zrotation
		JOINT LeftLeg
		{
			OFFSET -0.103842 -44.878361 -0.122574
			CHANNELS 6 Xposition Yposition Zposition Xrotation Yrotation Zrotation
			JOINT LeftFoot
			{
				OFFSET -0.094175 -40.700405 -0.191460
				CHANNELS 6 Xposition Yposition Zposition Xrotation Yrotation Zrotation
				JOINT LeftToeBase
				{
					OFFSET 0.000008 -6.262320 12.954727
					CHANNELS 6 Xposition Yposition Zposition Xrotation Yrotation Zrotation
					JOINT LeftToeBaseEnd
					{
						OFFSET -0.000135 -0.000000 8.000000
						CHANNELS 6 Xposition Yposition Zposition Xrotation Yrotation Zrotation
						End Site
						{
							OFFSET 0.000639 8.000002 0.000000
						}
					}
				}
			}
		}
	}
	JOINT RightUpLeg
	{
		OFFSET -8.910001 -6.269997 0.000000
		CHANNELS 6 Xposition Yposition Zposition Xrotation Yrotation Zrotation
		JOINT RightLeg
		{
			OFFSET -0.101007 -44.878124 0.191986
			CHANNELS 6 Xposition Yposition Zposition Xrotation Yrotation Zrotation
			JOINT RightFoot
			{
				OFFSET -0.091601 -40.700821 -0.052887
				CHANNELS 6 Xposition Yposition Zposition Xrotation Yrotation Zrotation
				JOINT RightToeBase
				{
					OFFSET -0.001086 -6.262319 12.954750
					CHANNELS 6 Xposition Yposition Zposition Xrotation Yrotation Zrotation
					JOINT RightToeBaseEnd
					{
						OFFSET -0.000851 -0.000407 8.000000
						CHANNELS 6 Xposition Yposition Zposition Xrotation Yrotation Zrotation
						End Site
						{
							OFFSET 0.000058 8.000002 0.000404
						}
					}
				}
			}
		}
	}
	JOINT Spine
	{
		OFFSET 0.000000 7.000000 0.000000
		CHANNELS 6 Xposition Yposition Zposition Xrotation Yrotation Zrotation
		JOINT Spine1
		{
			OFFSET -0.023388 12.548241 -1.727875
			CHANNELS 3 Xrotation Yrotation Zrotation
			JOINT Spine2
			{
				OFFSET -0.011827 12.636490 -0.873764
				CHANNELS 3 Xrotation Yrotation Zrotation
				JOINT LeftShoulder
				{
					OFFSET 6.999763 14.255325 -0.017601
					CHANNELS 6 Xposition Yposition Zposition Xrotation Yrotation Zrotation
					JOINT LeftArm
					{
						OFFSET 10.707253 0.000320 0.000000
						CHANNELS 6 Xposition Yposition Zposition Xrotation Yrotation Zrotation
						JOINT LeftForeArm
						{
							OFFSET 27.305473 0.000443 0.000008
							CHANNELS 6 Xposition Yposition Zposition Xrotation Yrotation Zrotation
							JOINT LeftHand
							{
								OFFSET 26.697151 0.000443 -0.000008
								CHANNELS 6 Xposition Yposition Zposition Xrotation Yrotation Zrotation
								JOINT LeftHandThumb1
								{
									OFFSET 4.348778 -0.793137 4.283417
									CHANNELS 6 Xposition Yposition Zposition Xrotation Yrotation Zrotation
									JOINT LeftHandThumb2
									{
										OFFSET 2.512596 -0.535187 0.708115
										CHANNELS 6 Xposition Yposition Zposition Xrotation Yrotation Zrotation
										JOINT LeftHandThumb3
										{
											OFFSET 2.543137 0.000046 0.000008
											CHANNELS 6 Xposition Yposition Zposition Xrotation Yrotation Zrotation
											JOINT LeftHandThumb4
											{
												OFFSET 2.666748 0.000061 -0.000008
												CHANNELS 6 Xposition Yposition Zposition Xrotation Yrotation Zrotation
												End Site
												{
													OFFSET -0.000061 2.666748 -0.003296
												}
											}
										}
									}
								}
								JOINT LeftHandIndex1
								{
									OFFSET 8.821976 0.204178 3.471420
									CHANNELS 6 Xposition Yposition Zposition Xrotation Yrotation Zrotation
									JOINT LeftHandIndex2
									{
										OFFSET 4.225319 0.000076 -0.000259
										CHANNELS 6 Xposition Yposition Zposition Xrotation Yrotation Zrotation
										JOINT LeftHandIndex3
										{
											OFFSET 2.652321 -0.000076 -0.092789
											CHANNELS 6 Xposition Yposition Zposition Xrotation Yrotation Zrotation
											JOINT LeftHandIndex4
											{
												OFFSET 1.953438 -0.000137 -0.136719
												CHANNELS 6 Xposition Yposition Zposition Xrotation Yrotation Zrotation
												End Site
												{
													OFFSET -0.000046 1.958221 -0.002419
												}
											}
										}
									}
								}
								JOINT LeftHandMiddle1
								{
									OFFSET 8.809875 0.502655 1.304062
									CHANNELS 6 Xposition Yposition Zposition Xrotation Yrotation Zrotation
									JOINT LeftHandMiddle2
									{
										OFFSET 4.863251 0.000076 0.000000
										CHANNELS 6 Xposition Yposition Zposition Xrotation Yrotation Zrotation
										JOINT LeftHandMiddle3
										{
											OFFSET 2.765236 0.000046 -0.000175
											CHANNELS 6 Xposition Yposition Zposition Xrotation Yrotation Zrotation
											JOINT LeftHandMiddle4
											{
												OFFSET 2.005630 0.000031 -0.000252
												CHANNELS 6 Xposition Yposition Zposition Xrotation Yrotation Zrotation
												End Site
												{
													OFFSET -0.000031 2.005630 -0.002480
												}
											}
										}
									}
								}
								JOINT LeftHandRing1
								{
									OFFSET 8.893753 0.379105 -0.793625
									CHANNELS 6 Xposition Yposition Zposition Xrotation Yrotation Zrotation
									JOINT LeftHandRing2
									{
										OFFSET 4.537758 0.000076 -0.000282
										CHANNELS 6 Xposition Yposition Zposition Xrotation Yrotation Zrotation
										JOINT LeftHandRing3
										{
											OFFSET 2.304527 0.000046 -0.000290
											CHANNELS 6 Xposition Yposition Zposition Xrotation Yrotation Zrotation
											JOINT LeftHandRing4
											{
												OFFSET 1.923347 0.000031 -0.000359
												CHANNELS 6 Xposition Yposition Zposition Xrotation Yrotation Zrotation
												End Site
												{
													OFFSET -0.000031 1.923340 -0.002373
												}
											}
										}
									}
								}
								JOINT LeftHandPinky1
								{
									OFFSET 8.882286 -0.315948 -2.489967
									CHANNELS 6 Xposition Yposition Zposition Xrotation Yrotation Zrotation
									JOINT LeftHandPinky2
									{
										OFFSET 3.044098 0.000046 0.000000
										CHANNELS 6 Xposition Yposition Zposition Xrotation Yrotation Zrotation
										JOINT LeftHandPinky3
										{
											OFFSET 1.974503 0.000000 0.000000
											CHANNELS 6 Xposition Yposition Zposition Xrotation Yrotation Zrotation
											JOINT LeftHandPinky4
											{
												OFFSET 1.666611 -0.000015 0.000000
												CHANNELS 6 Xposition Yposition Zposition Xrotation Yrotation Zrotation
												End Site
												{
													OFFSET 0.000038 1.666611 -0.002060
												}
											}
										}
									}
								}
							}
						}
					}
				}
				JOINT RightShoulder
				{
					OFFSET -7.000239 14.255096 -0.017601
					CHANNELS 6 Xposition Yposition Zposition Xrotation Yrotation Zrotation
					JOINT RightArm
					{
						OFFSET -10.707277 0.000244 0.000000
						CHANNELS 6 Xposition Yposition Zposition Xrotation Yrotation Zrotation
						JOINT RightForeArm
						{
							OFFSET -27.305599 -0.000458 0.000000
							CHANNELS 6 Xposition Yposition Zposition Xrotation Yrotation Zrotation
							JOINT RightHand
							{
								OFFSET -26.696995 0.002319 -0.000008
								CHANNELS 6 Xposition Yposition Zposition Xrotation Yrotation Zrotation
								JOINT RightHandThumb1
								{
									OFFSET -4.348450 -0.792847 4.283798
									CHANNELS 6 Xposition Yposition Zposition Xrotation Yrotation Zrotation
									JOINT RightHandThumb2
									{
										OFFSET -2.512577 -0.534988 0.708336
										CHANNELS 6 Xposition Yposition Zposition Xrotation Yrotation Zrotation
										JOINT RightHandThumb3
										{
											OFFSET -2.541588 0.000336 0.088821
											CHANNELS 6 Xposition Yposition Zposition Xrotation Yrotation Zrotation
											JOINT RightHandThumb4
											{
												OFFSET -2.665123 0.000320 0.093140
												CHANNELS 6 Xposition Yposition Zposition Xrotation Yrotation Zrotation
												End Site
												{
													OFFSET 0.000183 2.666748 -0.003296
												}
											}
										}
									}
								}
								JOINT RightHandIndex1
								{
									OFFSET -8.821651 0.204773 3.472191
									CHANNELS 6 Xposition Yposition Zposition Xrotation Yrotation Zrotation
									JOINT RightHandIndex2
									{
										OFFSET -4.225319 0.000366 0.000114
										CHANNELS 6 Xposition Yposition Zposition Xrotation Yrotation Zrotation
										JOINT RightHandIndex3
										{
											OFFSET -2.652321 0.000351 0.092697
											CHANNELS 6 Xposition Yposition Zposition Xrotation Yrotation Zrotation
											JOINT RightHandIndex4
											{
												OFFSET -1.953445 0.000336 0.136658
												CHANNELS 6 Xposition Yposition Zposition Xrotation Yrotation Zrotation
												End Site
												{
													OFFSET 0.000168 1.958221 -0.002419
												}
											}
										}
									}
								}
								JOINT RightHandMiddle1
								{
									OFFSET -8.809727 0.503265 1.304840
									CHANNELS 6 Xposition Yposition Zposition Xrotation Yrotation Zrotation
									JOINT RightHandMiddle2
									{
										OFFSET -4.863251 0.000427 0.000130
										CHANNELS 6 Xposition Yposition Zposition Xrotation Yrotation Zrotation
										JOINT RightHandMiddle3
										{
											OFFSET -2.763550 0.000366 0.096581
											CHANNELS 6 Xposition Yposition Zposition Xrotation Yrotation Zrotation
											JOINT RightHandMiddle4
											{
												OFFSET -2.000740 0.000351 0.139961
												CHANNELS 6 Xposition Yposition Zposition Xrotation Yrotation Zrotation
												End Site
												{
													OFFSET 0.000175 2.005630 -0.002480
												}
											}
										}
									}
								}
								JOINT RightHandRing1
								{
									OFFSET -8.893795 0.379715 -0.792847
									CHANNELS 6 Xposition Yposition Zposition Xrotation Yrotation Zrotation
									JOINT RightHandRing2
									{
										OFFSET -4.537766 0.000397 0.000122
										CHANNELS 6 Xposition Yposition Zposition Xrotation Yrotation Zrotation
										JOINT RightHandRing3
										{
											OFFSET -2.303116 0.000290 0.080490
											CHANNELS 6 Xposition Yposition Zposition Xrotation Yrotation Zrotation
											JOINT RightHandRing4
											{
												OFFSET -1.918663 0.000336 0.134224
												CHANNELS 6 Xposition Yposition Zposition Xrotation Yrotation Zrotation
												End Site
												{
													OFFSET 0.000160 1.923355 -0.002373
												}
											}
										}
									}
								}
								JOINT RightHandPinky1
								{
									OFFSET -8.882519 -0.315338 -2.489189
									CHANNELS 6 Xposition Yposition Zposition Xrotation Yrotation Zrotation
									JOINT RightHandPinky2
									{
										OFFSET -3.047798 0.000259 0.000084
										CHANNELS 6 Xposition Yposition Zposition Xrotation Yrotation Zrotation
										JOINT RightHandPinky3
										{
											OFFSET -1.975693 0.000244 0.069046
											CHANNELS 6 Xposition Yposition Zposition Xrotation Yrotation Zrotation
											JOINT RightHandPinky4
											{
												OFFSET -1.664574 0.000320 0.116447
												CHANNELS 6 Xposition Yposition Zposition Xrotation Yrotation Zrotation
												End Site
												{
													OFFSET 0.000214 1.668640 -0.002068
												}
											}
										}
									}
								}
							}
						}
					}
				}
				JOINT Neck
				{
					OFFSET -0.000212 12.666656 -0.015640
					CHANNELS 6 Xposition Yposition Zposition Xrotation Yrotation Zrotation
					JOINT Head
					{
						OFFSET 0.011088 9.988190 0.485672
						CHANNELS 3 Xrotation Yrotation Zrotation
						JOINT HeadEnd
						{
							OFFSET 0.000000 20.000000 0.000000
							CHANNELS 3 Xrotation Yrotation Zrotation
							End Site
							{
								OFFSET 0.000000 20.000000 0.000000
							}
						}
					}
				}
			}
		}
	}
}
MOTION
Frames: 3
Frame Time: 0.008333
12.174106 99.837570 -112.304909 0.593320 0.270923 -0.310968 8.910004 -6.269996 0.000011 4.454858 5.217170 13.680869 -0.103837 -44.878361 -0.122569 1.892203 -0.474080 0.270138 -0.094177 -40.700401 -0.191474 -5.330946 7.831742 -15.275534 -0.000003 -6.262319 12.954734 0.093517 -0.000006 0.000002 -0.000137 -0.000000 8.000008 0.000000 -0.000000 -0.000000 -8.910001 -6.269999 0.000014 5.511545 -2.011336 -15.764597 -0.101007 -44.878124 0.191990 -0.246622 0.381073 0.166396 -0.091605 -40.700821 -0.052888 -2.659836 -9.251817 19.580209 -0.001085 -6.262318 12.954747 0.011432 0.000000 0.000001 -0.000853 -0.000406 8.000000 -0.000000 -0.000000 -0.000000 0.000000 6.999993 -0.000003 -1.201123 0.055848 0.706137 0.936665 -0.081681 -0.558799 0.936700 -0.032919 -0.562946 6.999766 14.255305 -0.017604 -1.857949 0.883831 -0.075463 10.707257 0.000329 -0.000003 -17.900056 -4.921579 5.196401 27.305479 0.000449 -0.000000 -0.035840 -10.542644 0.038733 26.697155 0.000457 0.000002 5.048843 30.128128 -25.322689 4.348784 -0.793127 4.283418 12.144662 2.832499 -28.385067 2.512634 -0.535193 0.708114 -0.605230 6.865529 -0.404817 2.543127 0.000041 -0.000006 -0.605219 6.865537 -0.404806 2.666750 0.000079 -0.000022 -0.605222 6.865544 -0.404825 8.821976 0.204190 3.471415 -2.914359 -10.584678 -13.966843 4.225326 0.000053 -0.000255 -0.167977 -0.042065 -6.903566 2.652316 -0.000075 -0.092773 -0.168006 -0.042060 -6.904015 1.953442 -0.000116 -0.136724 -0.167940 -0.042078 -6.904003 8.809878 0.502664 1.304046 -1.240289 -3.774433 -13.809742 4.863278 0.000099 -0.000009 -0.167981 -0.042052 -6.903951 2.765243 0.000024 -0.000188 -0.167981 -0.042071 -6.904021 2.005648 0.000046 -0.000242 -0.167979 -0.042072 -6.904016 8.893760 0.379135 -0.793633 1.441505 7.224540 -13.975782 4.537774 0.000042 -0.000270 -0.167980 -0.042060 -6.904036 2.304535 0.000052 -0.000294 -0.167973 -0.042060 -6.904009 1.923350 0.000040 -0.000357 -0.167986 -0.042065 -6.904000 8.882290 -0.315959 -2.489987 3.611349 15.729470 -14.474474 3.044099 0.000064 -0.000006 -0.167985 -0.042081 -6.904007 1.974488 0.000013 0.000001 -0.167971 -0.042066 -6.904037 1.666638 0.000004 -0.000000 -0.167976 -0.042084 -6.903995 -7.000237 14.255102 -0.017612 -1.456094 0.735804 -2.900600 -10.707278 0.000256 -0.000010 -28.925004 -0.517661 -2.884364 -27.305603 -0.000463 0.000007 -0.061899 5.031894 -0.004340 -26.697006 0.002321 0.000013 -12.124394 -8.397101 2.140336 -4.348461 -0.792877 4.283783 16.602571 -1.802595 34.521169 -2.512587 -0.534997 0.708326 -0.682580 -8.179374 0.468719 -2.541593 0.000314 0.088825 -0.682585 -8.179372 0.468723 -2.665134 0.000362 0.093137 -0.682572 -8.179374 0.468720 -8.821665 0.204762 3.472196 -2.832934 10.969190 16.729363 -4.225307 0.000375 0.000120 0.200836 0.032695 8.221324 -2.652316 0.000329 0.092698 0.200860 0.032716 8.221299 -1.953436 0.000322 0.136661 0.200828 0.032713 8.221313 -8.809724 0.503278 1.304846 -0.894915 4.484553 16.483676 -4.863261 0.000405 0.000162 0.200843 0.032696 8.221313 -2.763516 0.000364 0.096591 0.200837 0.032725 8.221298 -2.000721 0.000309 0.139987 0.200826 0.032722 8.221325 -8.893796 0.379690 -0.792855 0.943832 -1.777256 16.454943 -4.537767 0.000391 0.000138 0.200836 0.032714 8.221215 -2.303125 0.000317 0.080482 0.200843 0.032702 8.221306 -1.918664 0.000325 0.134246 0.200841 0.032700 8.221319 -8.882517 -0.315349 -2.489210 4.696578 -14.245759 17.010813 -3.047802 0.000251 0.000074 0.200826 0.032705 8.219834 -1.975702 0.000260 0.069058 0.200817 0.032695 8.221322 -1.664569 0.000328 0.116454 0.200836 0.032715 8.221309 -0.000212 12.666679 -0.015644 0.059486 -0.159525 0.563618 -0.545409 0.548352 2.299238 -0.000000 0.000000 0.000000 
12.175179 99.841270 -112.360100 0.517392 0.317242 -0.307328 8.910004 -6.269985 0.000020 4.464015 5.232100 13.680267 -0.103841 -44.878376 -0.122572 1.923332 -0.472379 0.269285 -0.094181 -40.700397 -0.191461 -5.327884 7.753041 -15.251317 0.000012 -6.262320 12.954712 0.115836 -0.000010 0.000002 -0.000136 -0.000000 7.999992 0.000000 0.000000 0.000000 -8.910004 -6.270003 0.000016 5.543662 -2.052552 -15.765333 -0.101003 -44.878124 0.192000 -0.212864 0.379597 0.166152 -0.091608 -40.700821 -0.052885 -2.655543 -9.245497 19.578459 -0.001079 -6.262318 12.954751 0.018858 0.000000 0.000002 -0.000854 -0.000406 8.000000 -0.000000 -0.000001 0.000000 -0.000001 7.000005 0.000023 -1.088693 0.049660 0.655029 0.932623 -0.092530 -0.551813 0.932564 -0.043742 -0.560560 6.999765 14.255314 -0.017621 -1.959231 0.884400 0.026492 10.707256 0.000313 -0.000012 -17.909079 -4.931818 5.037416 27.305473 0.000453 0.000009 -0.034855 -10.522529 0.039360 26.697136 0.000421 -0.000013 5.288932 30.203551 -25.264576 4.348781 -0.793144 4.283404 12.144661 2.832497 -28.385062 2.512592 -0.535177 0.708121 -0.605230 6.865531 -0.404818 2.543135 0.000057 0.000019 -0.605221 6.865539 -0.404807 2.666749 0.000066 -0.000019 -0.605218 6.865544 -0.404831 8.821976 0.204174 3.471414 -2.914355 -10.584679 -13.966836 4.225334 0.000071 -0.000255 -0.167974 -0.042065 -6.903566 2.652318 -0.000069 -0.092786 -0.168001 -0.042059 -6.904015 1.953431 -0.000130 -0.136717 -0.167940 -0.042079 -6.903995 8.809876 0.502664 1.304044 -1.240288 -3.774432 -13.809735 4.863261 0.000087 -0.000006 -0.167981 -0.042053 -6.903950 2.765233 0.000039 -0.000175 -0.167980 -0.042071 -6.904022 2.005630 0.000020 -0.000261 -0.167978 -0.042074 -6.904011 8.893735 0.379118 -0.793632 1.441505 7.224540 -13.975781 4.537749 0.000089 -0.000270 -0.167981 -0.042061 -6.904032 2.304528 0.000040 -0.000293 -0.167970 -0.042062 -6.904006 1.923352 0.000051 -0.000369 -0.167987 -0.042065 -6.903996 8.882275 -0.315938 -2.489979 3.611348 15.729470 -14.474472 3.044110 0.000046 -0.000012 -0.167981 -0.042085 -6.904006 1.974503 0.000007 -0.000009 -0.167971 -0.042070 -6.904042 1.666620 -0.000016 -0.000001 -0.167978 -0.042084 -6.903994 -7.000237 14.255102 -0.017616 -1.483535 0.718425 -2.887904 -10.707280 0.000263 -0.000017 -28.836840 -0.442563 -2.835983 -27.305607 -0.000445 0.000006 -0.060891 5.013973 -0.004493 -26.697002 0.002348 0.000015 -12.285371 -7.989731 2.346084 -4.348457 -0.792850 4.283811 16.602568 -1.802594 34.521173 -2.512578 -0.535000 0.708347 -0.682581 -8.179373 0.468719 -2.541606 0.000326 0.088811 -0.682587 -8.179376 0.468729 -2.665126 0.000319 0.093133 -0.682570 -8.179374 0.468720 -8.821672 0.204767 3.472218 -2.832937 10.969192 16.729362 -4.225311 0.000347 0.000126 0.200839 0.032695 8.221320 -2.652306 0.000329 0.092704 0.200858 0.032714 8.221302 -1.953444 0.000342 0.136680 0.200824 0.032719 8.221317 -8.809734 0.503277 1.304854 -0.894922 4.484552 16.483676 -4.863275 0.000428 0.000146 0.200847 0.032695 8.221313 -2.763542 0.000384 0.096571 0.200840 0.032727 8.221298 -2.000742 0.000323 0.139963 0.200825 0.032721 8.221325 -8.893803 0.379721 -0.792834 0.943825 -1.777256 16.454942 -4.537768 0.000398 0.000125 0.200845 0.032709 8.221221 -2.303115 0.000324 0.080482 0.200837 0.032700 8.221305 -1.918661 0.000347 0.134199 0.200843 0.032700 8.221316 -8.882526 -0.315337 -2.489180 4.696578 -14.245761 17.010813 -3.047810 0.000261 0.000096 0.200822 0.032707 8.219836 -1.975686 0.000253 0.069044 0.200818 0.032692 8.221319 -1.664556 0.000308 0.116450 0.200841 0.032714 8.221308 -0.000213 12.666677 -0.015646 0.149486 -0.205327 0.586101 -0.543010 0.481582 2.255200 0.000000 -0.000000 0.000000 
12.175150 99.848076 -112.423744 0.449571 0.336068 -0.302071 8.910002 -6.269990 0.000010 4.523315 5.203151 13.673311 -0.103836 -44.878365 -0.122574 1.867859 -0.470318 0.267650 -0.094179 -40.700401 -0.191469 -5.274979 7.765329 -15.271499 0.000005 -6.262320 12.954731 0.081187 -0.000005 0.000001 -0.000150 -0.000001 8.000008 -0.000000 0.000001 -0.000000 -8.910004 -6.269986 0.000006 5.554973 -2.033247 -15.766052 -0.101009 -44.878128 0.191993 -0.152080 0.378143 0.165722 -0.091605 -40.700821 -0.052874 -2.655586 -9.270469 19.583959 -0.001082 -6.262318 12.954753 0.010213 0.000000 0.000001 -0.000849 -0.000407 7.999992 0.000000 -0.000001 0.000000 0.000001 6.999998 0.000013 -0.959788 0.046084 0.619691 0.941375 -0.099886 -0.552540 0.941270 -0.050281 -0.559552 6.999766 14.255306 -0.017613 -1.967388 0.841021 0.054730 10.707257 0.000337 -0.000012 -17.789351 -4.864763 5.078414 27.305483 0.000444 0.000005 -0.033802 -10.515671 0.040026 26.697155 0.000446 0.000010 5.318118 30.457439 -25.581309 4.348778 -0.793159 4.283418 12.144662 2.832498 -28.385064 2.512637 -0.535193 0.708122 -0.605229 6.865532 -0.404823 2.543138 0.000069 0.000017 -0.605220 6.865538 -0.404807 2.666754 0.000067 -0.000007 -0.605217 6.865543 -0.404829 8.821964 0.204156 3.471424 -2.914355 -10.584680 -13.966838 4.225321 0.000089 -0.000262 -0.167974 -0.042064 -6.903569 2.652343 -0.000029 -0.092786 -0.168006 -0.042059 -6.904018 1.953433 -0.000112 -0.136722 -0.167941 -0.042080 -6.904001 8.809887 0.502636 1.304047 -1.240289 -3.774433 -13.809736 4.863267 0.000080 -0.000008 -0.167983 -0.042054 -6.903951 2.765237 0.000040 -0.000164 -0.167978 -0.042071 -6.904022 2.005657 0.000035 -0.000248 -0.167978 -0.042072 -6.904015 8.893764 0.379096 -0.793632 1.441505 7.224539 -13.975780 4.537782 0.000075 -0.000284 -0.167979 -0.042060 -6.904031 2.304534 0.000041 -0.000290 -0.167969 -0.042061 -6.904010 1.923353 0.000061 -0.000365 -0.167989 -0.042063 -6.903998 8.882298 -0.315968 -2.489977 3.611348 15.729468 -14.474469 3.044109 0.000068 0.000001 -0.167983 -0.042082 -6.904001 1.974485 0.000019 -0.000006 -0.167978 -0.042069 -6.904035 1.666600 -0.000014 0.000000 -0.167982 -0.042084 -6.903988 -7.000237 14.255082 -0.017624 -1.492678 0.710584 -2.900690 -10.707277 0.000243 -0.000023 -28.890139 -0.368011 -2.786746 -27.305605 -0.000455 0.000020 -0.059841 5.018913 -0.004655 -26.696995 0.002349 -0.000001 -12.138502 -8.407382 2.467153 -4.348458 -0.792862 4.283795 16.602569 -1.802594 34.521169 -2.512571 -0.534990 0.708333 -0.682579 -8.179374 0.468719 -2.541585 0.000342 0.088830 -0.682587 -8.179375 0.468723 -2.665137 0.000320 0.093132 -0.682572 -8.179373 0.468722 -8.821682 0.204784 3.472216 -2.832939 10.969191 16.729365 -4.225317 0.000319 0.000123 0.200839 0.032695 8.221318 -2.652326 0.000318 0.092693 0.200861 0.032715 8.221304 -1.953425 0.000305 0.136660 0.200824 0.032717 8.221315 -8.809747 0.503275 1.304859 -0.894917 4.484553 16.483678 -4.863263 0.000430 0.000147 0.200842 0.032695 8.221312 -2.763521 0.000361 0.096584 0.200843 0.032724 8.221298 -2.000741 0.000330 0.139974 0.200828 0.032721 8.221329 -8.893795 0.379706 -0.792826 0.943825 -1.777256 16.454943 -4.537767 0.000409 0.000116 0.200844 0.032713 8.221196 -2.303113 0.000302 0.080470 0.200834 0.032705 8.221304 -1.918657 0.000344 0.134197 0.200836 0.032701 8.221316 -8.882534 -0.315340 -2.489182 4.696574 -14.245761 17.010813 -3.047796 0.000283 0.000104 0.200827 0.032706 8.219833 -1.975688 0.000275 0.069042 0.200815 0.032691 8.221318 -1.664562 0.000311 0.116447 0.200837 0.032717 8.221308 -0.000212 12.666643 -0.015645 0.172863 -0.237317 0.612478 -0.638577 0.464621 2.308605 0.000000 -0.000000 0.000000 
